#!OML:ASF H:\MichaelJackson\Top Level 1\Subject 1\Session 1\male.ASF
:FULLY-SPECIFIED
:DEGREES
932
root 1.93306 16.2625 12.6442 14.6852 -6.55869 -1.15041
lowerback -0.0822046 0.446862 5.38993
upperback -2.03096 0.596534 -3.36909
thorax -1.96549 0.172707 -6.5503
lowerneck -8.12508 2.93183 6.34154
upperneck -0.111522 3.27682 0.961677
head 1.43269 1.66664 -0.650196
rclavicle 4.57205e-015 -7.95139e-015
rhumerus 8.80793 -28.099 3.70248
rradius 25.5891
rwrist -10.6816
rhand -35.8077 -49.1922
rfingers 7.12502
rthumb -8.92424 -78.9835
lclavicle 4.57205e-015 -7.95139e-015
lhumerus -53.1227 -38.4655 116.968
lradius 48.7279
lwrist 18.6653
lhand 40.1413 33.4093
lfingers 7.12502
lthumb 62.5122 44.2505
rfemur -35.9738 -6.38551 0.67003
rtibia 46.5242
rfoot -6.89433 3.49644
rtoes -37.5297
lfemur 0.136219 6.76284 8.58778
ltibia 1.79031
lfoot -11.9895 -15.9028
ltoes -34.9503
933
root 1.93744 16.261 12.637 14.5915 -6.47883 -1.1588
lowerback -0.140556 0.459866 5.47484
upperback -2.04851 0.612706 -3.34797
thorax -1.94809 0.179696 -6.5765
lowerneck -8.18558 2.93302 6.34759
upperneck -0.015875 3.27118 0.934746
head 1.47514 1.66589 -0.658918
rclavicle -1.39149e-015 2.94201e-014
rhumerus 8.87377 -28.1411 3.7138
rradius 25.5806
rwrist -10.6008
rhand -35.8034 -49.1437
rfingers 7.12502
rthumb -8.92012 -78.9352
lclavicle -1.39149e-015 2.94201e-014
lhumerus -53.078 -38.4231 116.952
lradius 48.6596
lwrist 18.745
lhand 40.1592 33.4414
lfingers 7.12502
lthumb 62.527 44.2633
rfemur -35.6511 -6.40238 0.694073
rtibia 46.2321
rfoot -7.17356 3.22874
rtoes -37.7647
lfemur -0.156681 6.63797 8.40211
ltibia 2.42347
lfoot -12.3102 -15.5437
ltoes -35.0571
934
root 1.94184 16.2593 12.6298 14.4921 -6.40842 -1.16914
lowerback -0.196926 0.474831 5.55289
upperback -2.06251 0.63143 -3.32549
thorax -1.92775 0.188312 -6.59729
lowerneck -8.22092 2.93237 6.36737
upperneck 0.0552837 3.26441 0.90797
head 1.5055 1.66389 -0.670375
rclavicle 9.34288e-015 -1.98785e-014
rhumerus 8.93194 -28.1659 3.72298
rradius 25.5757
rwrist -10.5496
rhand -35.8013 -49.0934
rfingers 7.12502
rthumb -8.9181 -78.8849
lclavicle 9.34288e-015 -1.98785e-014
lhumerus -53.0366 -38.3678 116.934
lradius 48.5998
lwrist 18.8307
lhand 40.1638 33.4839
lfingers 7.12502
lthumb 62.5309 44.3007
rfemur -35.3061 -6.43174 0.727972
rtibia 45.9136
rfoot -7.49306 2.94299
rtoes -38.0522
lfemur -0.378001 6.52006 8.25005
ltibia 2.94343
lfoot -12.5859 -15.1997
ltoes -35.185
935
root 1.94599 16.2573 12.6225 14.3869 -6.33976 -1.17249
lowerback -0.256086 0.487322 5.61123
upperback -2.07092 0.646406 -3.30267
thorax -1.90069 0.195802 -6.6062
lowerneck -8.24614 2.93279 6.39978
upperneck 0.114974 3.25879 0.88672
head 1.53053 1.66227 -0.68236
rclavicle 3.47873e-015 1.35174e-014
rhumerus 8.98533 -28.1707 3.72657
rradius 25.5733
rwrist -10.5251
rhand -35.8035 -49.0666
rfingers 7.12502
rthumb -8.92019 -78.858
lclavicle 3.47873e-015 1.35174e-014
lhumerus -52.9978 -38.3122 116.92
lradius 48.5517
lwrist 18.9054
lhand 40.1545 33.5173
lfingers 7.12502
lthumb 62.5231 44.3443
rfemur -34.9248 -6.47128 0.761877
rtibia 45.5569
rfoot -7.87103 2.61794
rtoes -38.3701
lfemur -0.568496 6.40012 8.10425
ltibia 3.41602
lfoot -12.8484 -14.8448
ltoes -35.3478
936
root 1.94974 16.2547 12.6154 14.2788 -6.26596 -1.17105
lowerback -0.320236 0.497192 5.65419
upperback -2.07598 0.657383 -3.2806
thorax -1.86803 0.201846 -6.6069
lowerneck -8.26527 2.93344 6.43288
upperneck 0.168588 3.25343 0.887308
head 1.55202 1.66109 -0.687617
rclavicle 9.83984e-015 -1.43125e-014
rhumerus 9.02916 -28.1581 3.72554
rradius 25.5696
rwrist -10.5227
rhand -35.8025 -49.0288
rfingers 7.12502
rthumb -8.91925 -78.8202
lclavicle 9.83984e-015 -1.43125e-014
lhumerus -52.9725 -38.2775 116.922
lradius 48.5151
lwrist 18.9606
lhand 40.1407 33.5332
lfingers 7.12502
lthumb 62.5117 44.375
rfemur -34.5002 -6.5184 0.798934
rtibia 45.1528
rfoot -8.31189 2.23911
rtoes -38.6784
lfemur -0.747967 6.27354 7.95957
ltibia 3.87072
lfoot -13.1061 -14.4621
ltoes -35.5273
937
root 1.95304 16.2514 12.6081 14.1747 -6.18499 -1.16259
lowerback -0.394708 0.50592 5.68135
upperback -2.0812 0.666073 -3.2624
thorax -1.83014 0.207166 -6.60243
lowerneck -8.2838 2.93312 6.47929
upperneck 0.224623 3.24504 0.901243
head 1.5741 1.65883 -0.691032
rclavicle 1.81888e-014 -3.18055e-014
rhumerus 9.06189 -28.1408 3.71672
rradius 25.5604
rwrist -10.5248
rhand -35.7921 -48.9808
rfingers 7.12502
rthumb -8.90916 -78.7727
lclavicle 1.81888e-014 -3.18055e-014
lhumerus -52.9639 -38.2819 116.95
lradius 48.4872
lwrist 18.9878
lhand 40.1226 33.5123
lfingers 7.12502
lthumb 62.4968 44.3737
rfemur -34.0364 -6.57335 0.838926
rtibia 44.6988
rfoot -8.82148 1.78278
rtoes -38.994
lfemur -0.927894 6.1413 7.81126
ltibia 4.31497
lfoot -13.3543 -14.0418
ltoes -35.7093
938
root 1.95588 16.2469 12.6008 14.0778 -6.0999 -1.1514
lowerback -0.479743 0.517034 5.69896
upperback -2.09018 0.677268 -3.24893
thorax -1.78984 0.213842 -6.59739
lowerneck -8.29726 2.92978 6.53831
upperneck 0.285466 3.23125 0.928163
head 1.59669 1.65434 -0.692735
rclavicle -8.64713e-015 -7.95139e-016
rhumerus 9.07349 -28.1058 3.7101
rradius 25.5514
rwrist -10.5457
rhand -35.779 -48.9263
rfingers 7.12502
rthumb -8.89659 -78.7188
lclavicle -8.64713e-015 -7.95139e-016
lhumerus -52.9746 -38.3361 117.009
lradius 48.4637
lwrist 18.9874
lhand 40.1094 33.4473
lfingers 7.12502
lthumb 62.4859 44.3228
rfemur -33.542 -6.62811 0.886885
rtibia 44.1981
rfoot -9.38898 1.23414
rtoes -39.2952
lfemur -1.10478 6.0084 7.66422
ltibia 4.74369
lfoot -13.5897 -13.5838
ltoes -35.8895
